<?xml version="1.0" encoding="UTF-8"?>
<svg xmlns="http://www.w3.org/2000/svg" xmlns:xlink="http://www.w3.org/1999/xlink" width="325.757275" height="184.025081" viewBox="0 0 325.757275 184.025081">
<path fill-rule="nonzero" fill="rgb(0%, 0%, 0%)" fill-opacity="1" d="M 56.691406 56.691406 L 68.199219 56.691406 L 68.199219 70.46875 L 56.691406 70.46875 Z M 56.691406 56.691406 "/>
<path fill-rule="nonzero" fill="rgb(0%, 0%, 0%)" fill-opacity="1" d="M 82.375 56.691406 L 86.34375 56.691406 L 86.34375 60.660156 L 82.375 60.660156 Z M 82.375 56.691406 "/>
<path fill-rule="nonzero" fill="rgb(0%, 0%, 0%)" fill-opacity="1" d="M 100.515625 56.691406 L 104.484375 56.691406 L 104.484375 60.660156 L 100.515625 60.660156 Z M 100.515625 56.691406 "/>
<path fill-rule="nonzero" fill="rgb(0%, 0%, 0%)" fill-opacity="1" d="M 118.65625 56.691406 L 122.625 56.691406 L 122.625 60.660156 L 118.65625 60.660156 Z M 118.65625 56.691406 "/>
<path fill-rule="nonzero" fill="rgb(0%, 0%, 0%)" fill-opacity="1" d="M 136.800781 56.691406 L 140.769531 56.691406 L 140.769531 60.660156 L 136.800781 60.660156 Z M 136.800781 56.691406 "/>
<path fill-rule="nonzero" fill="rgb(0%, 0%, 0%)" fill-opacity="1" d="M 154.941406 56.691406 L 158.910156 56.691406 L 158.910156 60.660156 L 154.941406 60.660156 Z M 154.941406 56.691406 "/>
<path fill-rule="nonzero" fill="rgb(0%, 0%, 0%)" fill-opacity="1" d="M 173.082031 56.691406 L 176.570312 56.691406 L 176.570312 70.636719 L 173.082031 70.636719 Z M 173.082031 56.691406 "/>
<path fill-rule="nonzero" fill="rgb(0%, 0%, 0%)" fill-opacity="1" d="M 190.742188 56.691406 L 194.710938 56.691406 L 194.710938 60.660156 L 190.742188 60.660156 Z M 190.742188 56.691406 "/>
<path fill-rule="nonzero" fill="rgb(0%, 0%, 0%)" fill-opacity="1" d="M 208.886719 56.691406 L 212.375 56.691406 L 212.375 70.636719 L 208.886719 70.636719 Z M 208.886719 56.691406 "/>
<path fill="none" stroke-width="100" stroke-linecap="butt" stroke-linejoin="miter" stroke="rgb(100%, 100%, 100%)" stroke-opacity="1" stroke-miterlimit="10" d="M 19999.480914 19999.480914 L 24059.183992 19999.480914 L 24059.183992 24859.824688 L 19999.480914 24859.824688 Z M 19999.480914 19999.480914 " transform="matrix(0.00283464, 0, 0, 0.00283464, 0, 0)"/>
<path fill="none" stroke-width="100" stroke-linecap="butt" stroke-linejoin="miter" stroke="rgb(100%, 100%, 100%)" stroke-opacity="1" stroke-miterlimit="10" d="M 29060.08775 19999.480914 L 30460.175438 19999.480914 L 30460.175438 21399.568602 L 29060.08775 21399.568602 Z M 29060.08775 19999.480914 " transform="matrix(0.00283464, 0, 0, 0.00283464, 0, 0)"/>
<path fill="none" stroke-width="100" stroke-linecap="butt" stroke-linejoin="miter" stroke="rgb(100%, 100%, 100%)" stroke-opacity="1" stroke-miterlimit="10" d="M 35459.701156 19999.480914 L 36859.788844 19999.480914 L 36859.788844 21399.568602 L 35459.701156 21399.568602 Z M 35459.701156 19999.480914 " transform="matrix(0.00283464, 0, 0, 0.00283464, 0, 0)"/>
<path fill="none" stroke-width="100" stroke-linecap="butt" stroke-linejoin="miter" stroke="rgb(100%, 100%, 100%)" stroke-opacity="1" stroke-miterlimit="10" d="M 41859.314563 19999.480914 L 43259.40225 19999.480914 L 43259.40225 21399.568602 L 41859.314563 21399.568602 Z M 41859.314563 19999.480914 " transform="matrix(0.00283464, 0, 0, 0.00283464, 0, 0)"/>
<path fill="none" stroke-width="100" stroke-linecap="butt" stroke-linejoin="miter" stroke="rgb(100%, 100%, 100%)" stroke-opacity="1" stroke-miterlimit="10" d="M 48260.306008 19999.480914 L 49660.393695 19999.480914 L 49660.393695 21399.568602 L 48260.306008 21399.568602 Z M 48260.306008 19999.480914 " transform="matrix(0.00283464, 0, 0, 0.00283464, 0, 0)"/>
<path fill="none" stroke-width="100" stroke-linecap="butt" stroke-linejoin="miter" stroke="rgb(100%, 100%, 100%)" stroke-opacity="1" stroke-miterlimit="10" d="M 54659.919414 19999.480914 L 56060.007102 19999.480914 L 56060.007102 21399.568602 L 54659.919414 21399.568602 Z M 54659.919414 19999.480914 " transform="matrix(0.00283464, 0, 0, 0.00283464, 0, 0)"/>
<path fill="none" stroke-width="100" stroke-linecap="butt" stroke-linejoin="miter" stroke="rgb(100%, 100%, 100%)" stroke-opacity="1" stroke-miterlimit="10" d="M 61059.53282 19999.480914 L 62290.121703 19999.480914 L 62290.121703 24919.080367 L 61059.53282 24919.080367 Z M 61059.53282 19999.480914 " transform="matrix(0.00283464, 0, 0, 0.00283464, 0, 0)"/>
<path fill="none" stroke-width="100" stroke-linecap="butt" stroke-linejoin="miter" stroke="rgb(100%, 100%, 100%)" stroke-opacity="1" stroke-miterlimit="10" d="M 67289.647422 19999.480914 L 68689.735109 19999.480914 L 68689.735109 21399.568602 L 67289.647422 21399.568602 Z M 67289.647422 19999.480914 " transform="matrix(0.00283464, 0, 0, 0.00283464, 0, 0)"/>
<path fill="none" stroke-width="100" stroke-linecap="butt" stroke-linejoin="miter" stroke="rgb(100%, 100%, 100%)" stroke-opacity="1" stroke-miterlimit="10" d="M 73690.638867 19999.480914 L 74921.22775 19999.480914 L 74921.22775 24919.080367 L 73690.638867 24919.080367 Z M 73690.638867 19999.480914 " transform="matrix(0.00283464, 0, 0, 0.00283464, 0, 0)"/>
</svg>
